<?xml version="1.0" encoding="UTF-8" standalone="no"?>
<!DOCTYPE svg PUBLIC "-//W3C//DTD SVG 1.1//EN" "http://www.w3.org/Graphics/SVG/1.1/DTD/svg11.dtd">
<svg width="100%" height="100%" viewBox="0 0 64 64" version="1.1" xmlns="http://www.w3.org/2000/svg" xmlns:xlink="http://www.w3.org/1999/xlink" xml:space="preserve" xmlns:serif="http://www.serif.com/" style="fill-rule:evenodd;clip-rule:evenodd;stroke-linejoin:round;stroke-miterlimit:2;">
    <g transform="matrix(1,0,0,1,-1.06581e-14,-137)">
        <g transform="matrix(0.106667,0,0,0.106667,0.106667,137.213)">
            <g transform="matrix(1.3616,0,0,1.3616,-106.386,-112.521)">
                <g transform="matrix(25.9211,0,0,27.5412,-0.36449,-3774.6)">
                    <rect x="3" y="140" width="17" height="16" style="fill:none;"/>
                </g>
                <g transform="matrix(1.44941,0,0,1.44941,-113.956,-113.163)">
                    <g transform="matrix(4.75041,0,0,4.75041,132.023,-516.729)">
                        <path d="M19.279,198.368C7.939,193.444 0,182.142 0,169C0,151.339 14.339,137 32,137C49.661,137 64,151.339 64,169C64,183.989 53.672,196.585 39.751,200.053C54.644,194.369 58.517,178.572 56.467,175.438L54.112,177.329C54.46,171.76 52.469,164.583 46.459,154.638C45.823,159.273 44.674,158.953 43.515,157.79C43.347,160.044 35.134,147.569 33.507,140.141C30.536,142.261 28.411,145.675 27.03,150.226C27.03,150.226 21.287,148.184 19.377,146.444C16.956,148.966 17.611,154.638 17.611,154.638C17.611,154.638 15.241,154.839 13.49,153.378C8.1,154.476 8.78,173.547 8.78,173.547C8.78,173.547 8.163,173.805 7.56,173.463C6.99,173.139 6.433,172.213 6.425,172.286C5.718,178.853 10.466,191.996 19.279,198.368Z" style="fill:rgb(76,76,76);"/>
                    </g>
                    <g transform="matrix(1,0,0,1,-65,-127)">
                        <path d="M346.752,412.682C354.978,401.936 367.937,395 382.503,395C407.34,395 427.503,415.164 427.503,440C427.503,459.047 415.644,475.346 398.912,481.91C398.97,482.934 399,483.964 399,485C399,514.527 375.027,538.5 345.5,538.5C315.973,538.5 292,514.527 292,485C292,483.609 292.053,482.231 292.157,480.871C276.722,473.737 266,458.111 266,440C266,415.164 286.164,395 311,395C325.566,395 338.526,401.936 346.752,412.682Z" style="fill:rgb(76,76,76);"/>
                        <path d="M308.468,438.13C308.165,439.031 308,439.997 308,441C308,445.967 312.033,450 317,450C317.522,450 318.034,449.955 318.532,449.87C317.333,453.432 313.964,456 310,456C305.033,456 301,451.967 301,447C301,442.555 304.23,438.858 308.468,438.13Z" style="fill:rgb(246,246,246);"/>
                        <g transform="matrix(1,0,0,1,73.4455,0)">
                            <path d="M308.468,438.13C308.165,439.031 308,439.997 308,441C308,445.967 312.033,450 317,450C317.522,450 318.034,449.955 318.532,449.87C317.333,453.432 313.964,456 310,456C305.033,456 301,451.967 301,447C301,442.555 304.23,438.858 308.468,438.13Z" style="fill:rgb(246,246,246);"/>
                        </g>
                        <g transform="matrix(0.660835,0,0,0.62534,114.492,186.641)">
                            <path d="M326,484C326,484 329.247,477.65 334,482C338.753,486.35 338.442,496.9 337,498C335.222,499.356 324.078,491.89 326,484Z" style="fill:rgb(246,246,246);"/>
                        </g>
                        <g transform="matrix(-0.725281,-0.0944956,-0.0807917,0.620099,634.987,220.564)">
                            <path d="M326,484C326,484 329.247,477.65 334,482C338.753,486.35 338.442,496.9 337,498C335.222,499.356 324.078,491.89 326,484Z" style="fill:rgb(246,246,246);"/>
                        </g>
                    </g>
                    <g transform="matrix(1,0,0,1,85,212)">
                        <g transform="matrix(1,0,0,1,-279,-310)">
                            <path d="M483,431C481.775,426.226 480.852,397.999 481,395C481.234,390.263 480.207,384.692 488,384C495.793,383.308 553.956,378.748 556,385C558.347,392.18 554.213,430.461 539,437C525.194,442.935 485.981,442.619 483,431ZM488.627,427.705C487.629,423.761 486.877,400.445 486.997,397.968C487.188,394.055 486.351,389.453 492.701,388.882C499.052,388.311 546.448,384.544 548.113,389.708C550.026,395.639 546.657,427.259 534.26,432.661C523.01,437.563 491.056,437.302 488.627,427.705Z" style="fill:rgb(246,246,246);"/>
                        </g>
                        <g transform="matrix(-0.999627,0,0,1,671,-310)">
                            <path d="M483,431C481.775,426.226 480.852,397.999 481,395C481.234,390.263 480.207,384.692 488,384C495.793,383.308 553.956,378.748 556,385C558.347,392.18 554.213,430.461 539,437C525.194,442.935 485.981,442.619 483,431ZM488.627,427.705C487.629,423.761 486.877,400.445 486.997,397.968C487.188,394.055 486.351,389.453 492.701,388.882C499.052,388.311 546.448,384.544 548.113,389.708C550.026,395.639 546.657,427.259 534.26,432.661C523.01,437.563 491.056,437.302 488.627,427.705Z" style="fill:rgb(246,246,246);"/>
                        </g>
                    </g>
                </g>
            </g>
        </g>
    </g>
</svg>
