<?xml version="1.0" encoding="UTF-8" standalone="no"?>
<!DOCTYPE svg PUBLIC "-//W3C//DTD SVG 1.1//EN" "http://www.w3.org/Graphics/SVG/1.1/DTD/svg11.dtd">
<svg width="100%" height="100%" viewBox="0 0 441 441" version="1.1" xmlns="http://www.w3.org/2000/svg" xmlns:xlink="http://www.w3.org/1999/xlink" xml:space="preserve" xmlns:serif="http://www.serif.com/" style="fill-rule:evenodd;clip-rule:evenodd;stroke-linejoin:round;stroke-miterlimit:2;">
    <g transform="matrix(1,0,0,1,-78.399,-83.17)">
        <g transform="matrix(1,0,0,1,1,2)">
            <g transform="matrix(1,0,0,1,37.399,-98.1704)">
                <circle cx="260.33" cy="399.67" r="220.33" style="fill:rgb(57,57,57);"/>
            </g>
            <g>
                <g transform="matrix(1.01854,0,0,1.01854,8.46694,-3.67306)">
                    <g transform="matrix(-2.652,0,0,2.79332,790.997,-596.816)">
                        <path d="M166,290C155.791,305.777 152.409,317.165 153,326L149,323C144.962,328.767 154.458,361.567 191,365C219.19,367.648 235.68,332.592 234,318C233.987,317.883 233.04,319.353 232.071,319.867C231.048,320.409 230,320 230,320C230,320 231.154,289.743 222,288C219.024,290.318 215,290 215,290C215,290 216.112,281 212,277C208.756,279.76 199,283 199,283C196.654,275.78 193.046,270.363 188,267C185.236,278.785 171.286,298.576 171,295C169.031,296.846 167.081,297.353 166,290Z" style="fill:rgb(255,101,27);"/>
                    </g>
                    <g transform="matrix(1,0,0,1,-65,-127)">
                        <path d="M346.752,412.682C354.978,401.936 367.937,395 382.503,395C407.34,395 427.503,415.164 427.503,440C427.503,459.047 415.644,475.346 398.912,481.91C398.97,482.934 399,483.964 399,485C399,514.527 375.027,538.5 345.5,538.5C315.973,538.5 292,514.527 292,485C292,483.609 292.053,482.231 292.157,480.871C276.722,473.737 266,458.111 266,440C266,415.164 286.164,395 311,395C325.566,395 338.526,401.936 346.752,412.682Z" style="fill:rgb(242,238,227);"/>
                        <path d="M308.468,438.13C308.165,439.031 308,439.997 308,441C308,445.967 312.033,450 317,450C317.522,450 318.034,449.955 318.532,449.87C317.333,453.432 313.964,456 310,456C305.033,456 301,451.967 301,447C301,442.555 304.23,438.858 308.468,438.13Z" style="fill:rgb(76,76,76);"/>
                        <g transform="matrix(1,0,0,1,73.4455,0)">
                            <path d="M308.468,438.13C308.165,439.031 308,439.997 308,441C308,445.967 312.033,450 317,450C317.522,450 318.034,449.955 318.532,449.87C317.333,453.432 313.964,456 310,456C305.033,456 301,451.967 301,447C301,442.555 304.23,438.858 308.468,438.13Z" style="fill:rgb(76,76,76);"/>
                        </g>
                        <g transform="matrix(0.660835,0,0,0.62534,114.492,186.641)">
                            <path d="M326,484C326,484 329.247,477.65 334,482C338.753,486.35 338.442,496.9 337,498C335.222,499.356 324.078,491.89 326,484Z" style="fill:rgb(76,76,76);"/>
                        </g>
                        <g transform="matrix(-0.725281,-0.0944956,-0.0807917,0.620099,634.987,220.564)">
                            <path d="M326,484C326,484 329.247,477.65 334,482C338.753,486.35 338.442,496.9 337,498C335.222,499.356 324.078,491.89 326,484Z" style="fill:rgb(76,76,76);"/>
                        </g>
                    </g>
                    <g transform="matrix(1,0,0,1,85,212)">
                        <g transform="matrix(1,0,0,1,-279,-310)">
                            <path d="M483,431C481.775,426.226 480.852,397.999 481,395C481.234,390.263 480.207,384.692 488,384C495.793,383.308 553.956,378.748 556,385C558.347,392.18 554.213,430.461 539,437C525.194,442.935 485.981,442.619 483,431ZM488.627,427.705C487.629,423.761 486.877,400.445 486.997,397.968C487.188,394.055 486.351,389.453 492.701,388.882C499.052,388.311 546.448,384.544 548.113,389.708C550.026,395.639 546.657,427.259 534.26,432.661C523.01,437.563 491.056,437.302 488.627,427.705Z" style="fill:rgb(39,39,39);"/>
                        </g>
                        <g transform="matrix(-0.999627,0,0,1,671,-310)">
                            <path d="M483,431C481.775,426.226 480.852,397.999 481,395C481.234,390.263 480.207,384.692 488,384C495.793,383.308 553.956,378.748 556,385C558.347,392.18 554.213,430.461 539,437C525.194,442.935 485.981,442.619 483,431ZM488.627,427.705C487.629,423.761 486.877,400.445 486.997,397.968C487.188,394.055 486.351,389.453 492.701,388.882C499.052,388.311 546.448,384.544 548.113,389.708C550.026,395.639 546.657,427.259 534.26,432.661C523.01,437.563 491.056,437.302 488.627,427.705Z" style="fill:rgb(39,39,39);"/>
                        </g>
                    </g>
                </g>
                <g transform="matrix(141.863,0,0,141.863,106.437,351.155)">
                    <path d="M0.041,-0.364C0.067,-0.364 0.088,-0.37 0.102,-0.383C0.117,-0.396 0.124,-0.415 0.124,-0.438L0.124,-0.638C0.124,-0.697 0.141,-0.743 0.174,-0.776C0.207,-0.808 0.281,-0.843 0.341,-0.843L0.341,-0.759C0.303,-0.759 0.274,-0.75 0.253,-0.73C0.232,-0.711 0.222,-0.684 0.222,-0.649L0.222,-0.438C0.222,-0.393 0.208,-0.359 0.182,-0.335C0.155,-0.31 0.09,-0.298 0.041,-0.298L0.041,-0.364ZM0.341,0.21C0.281,0.21 0.207,0.176 0.174,0.143C0.141,0.111 0.124,0.065 0.124,0.006L0.124,-0.194C0.124,-0.218 0.117,-0.236 0.102,-0.25C0.088,-0.263 0.067,-0.269 0.041,-0.269L0.041,-0.334C0.09,-0.334 0.155,-0.322 0.182,-0.296C0.208,-0.271 0.222,-0.235 0.222,-0.189L0.222,0.016C0.222,0.051 0.232,0.078 0.253,0.098C0.274,0.117 0.303,0.126 0.341,0.126L0.341,0.21Z" style="fill:rgb(242,238,227);fill-rule:nonzero;"/>
                </g>
                <g transform="matrix(-141.863,0,0,141.863,488.102,351.155)">
                    <path d="M0.041,-0.364C0.067,-0.364 0.088,-0.37 0.102,-0.383C0.117,-0.396 0.124,-0.415 0.124,-0.438L0.124,-0.638C0.124,-0.697 0.141,-0.743 0.174,-0.776C0.207,-0.808 0.281,-0.843 0.341,-0.843L0.341,-0.759C0.303,-0.759 0.274,-0.75 0.253,-0.73C0.232,-0.711 0.222,-0.684 0.222,-0.649L0.222,-0.438C0.222,-0.393 0.208,-0.359 0.182,-0.335C0.155,-0.31 0.09,-0.298 0.041,-0.298L0.041,-0.364ZM0.341,0.21C0.281,0.21 0.207,0.176 0.174,0.143C0.141,0.111 0.124,0.065 0.124,0.006L0.124,-0.194C0.124,-0.218 0.117,-0.236 0.102,-0.25C0.088,-0.263 0.067,-0.269 0.041,-0.269L0.041,-0.334C0.09,-0.334 0.155,-0.322 0.182,-0.296C0.208,-0.271 0.222,-0.235 0.222,-0.189L0.222,0.016C0.222,0.051 0.232,0.078 0.253,0.098C0.274,0.117 0.303,0.126 0.341,0.126L0.341,0.21Z" style="fill:rgb(242,238,227);fill-rule:nonzero;"/>
                </g>
            </g>
        </g>
    </g>
</svg>
